<svg id="Capa_1" enable-background="new 0 0 512 512" height="512" viewBox="0 0 512 512" width="512" xmlns="http://www.w3.org/2000/svg"><g><path d="m337.2 295.4v85.99h-50.33v-118.29h48.17z"/><path d="m193.82 193.63v55.75c-5.86-1.13-11.92-1.72-18.13-1.72h-31.39v-54.03z"/><path d="m165.75 411.39c-3.62 32.65-31.38 58.11-64.98 58.11-33.59 0-61.35-25.46-64.97-58.11z"/><path d="m497.56 411.39c-3.62 32.65-31.38 58.11-64.98 58.11-33.59 0-61.35-25.46-64.97-58.11z"/><path d="m454.77 104.24h-266.45c-40.82 0-74.02 32.65-74.02 72.79v70.63h-114.3v-110.11c0-25.39 10.05-49.26 28.31-67.21s42.54-27.84 68.36-27.84h295.3c33.271 0 62.8 28.28 62.8 61.74z"/><path d="m242.45 349.59v31.8h-242.45v-37.17h55.35v-30h-55.35v-36.56h175.69c37.44 0 66.76 31.6 66.76 71.93z"/><path d="m512 376.06v5.33h-144.8v-67.48h82.64c33.166 0 62.16 28.927 62.16 62.15z"/><path d="m478.27 288.4c-8.96-2.92-18.51-4.49-28.43-4.49h-83.34l-4.74-70.84h-35.82v-30h33.81l-3.27-48.83h101.96z"/></g></svg>